<?xml version="1.0" encoding="UTF-8"?>
<svg version="1.1" xmlns="http://www.w3.org/2000/svg" width="512" height="512">
<path d="M0 0 C1.29008353 0.73747103 2.58045114 1.47444533 3.87109375 2.2109375 C5.41990234 3.09652344 5.41990234 3.09652344 7 4 C7.57967529 3.40461426 8.15935059 2.80922852 8.7565918 2.19580078 C10.921695 -0.02058973 13.09359826 -2.23002656 15.27026367 -4.43505859 C16.66922485 -5.85643207 18.06025836 -7.28559411 19.45117188 -8.71484375 C20.33740234 -9.61074219 21.22363281 -10.50664063 22.13671875 -11.4296875 C22.94842529 -12.25710449 23.76013184 -13.08452148 24.59643555 -13.93701172 C28.43289623 -17.22986015 31.93923226 -18.28881153 36.9375 -18.3125 C37.75089844 -18.32925781 38.56429688 -18.34601563 39.40234375 -18.36328125 C46.22624925 -17.40896063 50.46491706 -12.96700463 55.078125 -8.28515625 C56.05709747 -7.30693153 56.05709747 -7.30693153 57.05584717 -6.3089447 C58.42756063 -4.93489979 59.79560442 -3.55718271 61.16015625 -2.17602539 C63.24839719 -0.06412097 65.34971308 2.03407585 67.453125 4.13085938 C68.78725343 5.47056285 70.12061365 6.81103186 71.453125 8.15234375 C72.08019348 8.77850082 72.70726196 9.4046579 73.35333252 10.04978943 C73.93443787 10.64042679 74.51554321 11.23106415 75.11425781 11.83959961 C75.62466614 12.35461533 76.13507446 12.86963104 76.66094971 13.4002533 C79.70104892 17.03222196 80.31488838 20.12980461 80.375 24.8125 C80.40335937 25.80894531 80.43171875 26.80539063 80.4609375 27.83203125 C79.21420736 36.40065959 72.68004595 41.68813514 66.75 47.4375 C65.48929687 48.67790039 65.48929687 48.67790039 64.203125 49.94335938 C62.142095 51.96925818 60.07437344 53.98778127 58 56 C58.85271484 57.69189453 58.85271484 57.69189453 59.72265625 59.41796875 C79.2455668 98.87998415 84.34700294 141.96820876 70.6640625 184.20703125 C57.32477058 223.55558009 28.93152812 255.58094121 -8.0625 274.25 C-45.64621773 292.6445019 -87.88666709 294.93485247 -127.57958984 281.84570312 C-136.92260139 278.58120928 -145.79572843 274.58054975 -153.984375 268.96875 C-155.89691117 267.84747646 -155.89691117 267.84747646 -157.78662109 268.11181641 C-161.02312382 269.41055862 -163.070764 271.76230611 -165.4296875 274.2421875 C-165.94250275 274.76636261 -166.45531799 275.29053772 -166.9836731 275.83059692 C-169.17172148 278.0675356 -171.34171598 280.32168802 -173.51318359 282.57470703 C-175.10405568 284.2201233 -176.70407675 285.85625189 -178.3046875 287.4921875 C-178.78614227 287.99853729 -179.26759705 288.50488708 -179.76364136 289.02658081 C-184.0157752 293.36891837 -187.80770541 295.75248287 -193.875 296.4375 C-202.06871085 296.07554487 -207.8104666 290.7794591 -213.2734375 285.1875 C-213.92325592 284.53676514 -214.57307434 283.88603027 -215.24258423 283.21557617 C-216.60350806 281.84864878 -217.9596074 280.47690247 -219.31103516 279.10058594 C-221.37947813 276.99544241 -223.46367036 274.90693334 -225.55078125 272.8203125 C-226.87595043 271.48531776 -228.20020212 270.14941153 -229.5234375 268.8125 C-230.14423187 268.18947998 -230.76502625 267.56645996 -231.40463257 266.92456055 C-232.26660751 266.04344604 -232.26660751 266.04344604 -233.14599609 265.14453125 C-233.65037201 264.63253174 -234.15474792 264.12053223 -234.67440796 263.59301758 C-237.71590633 259.93792596 -238.31517443 256.82729003 -238.375 252.125 C-238.40335937 251.11695313 -238.43171875 250.10890625 -238.4609375 249.0703125 C-237.51551696 242.77285028 -232.75427928 238.46901158 -228.359375 234.1640625 C-227.83232971 233.63984711 -227.30528442 233.11563171 -226.76226807 232.57553101 C-225.09619309 230.92055166 -223.42326417 229.27270711 -221.75 227.625 C-220.61151665 226.49656019 -219.47349122 225.36765819 -218.3359375 224.23828125 C-215.56255488 221.48681792 -212.78300766 218.74172617 -210 216 C-210.54221191 214.95739014 -211.08442383 213.91478027 -211.64306641 212.84057617 C-232.18507115 173.18216076 -237.63778104 130.39291717 -224.46728516 87.38134766 C-214.08039128 54.92623158 -191.9454213 24.4273426 -163 6 C-161.90300781 5.29230469 -160.80601562 4.58460937 -159.67578125 3.85546875 C-111.58572283 -26.47265096 -49.45394806 -28.53864196 0 0 Z " fill="#063E4B" transform="translate(335,118)"/>
<path d="M0 0 C2.375 1.6875 2.375 1.6875 4 4 C4.47853701 7.69705033 4.42821565 9.39761214 2.24261475 12.47218323 C1.41972961 13.27872849 0.59684448 14.08527374 -0.25097656 14.91625977 C-1.17904114 15.84064346 -2.10710571 16.76502716 -3.06329346 17.71742249 C-4.08883849 18.70899057 -5.11462158 19.70031248 -6.140625 20.69140625 C-7.18617232 21.72320958 -8.23032206 22.75643086 -9.27313232 23.79100037 C-12.02065225 26.50997555 -14.7852442 29.21090042 -17.55426025 31.90795898 C-20.90627689 35.17853692 -24.23970836 38.46802902 -27.57394028 41.75672054 C-30.17049487 44.31765097 -32.77023557 46.87499258 -35.38092041 49.42152405 C-36.32159363 50.34275558 -37.26226685 51.26398712 -38.23144531 52.21313477 C-39.05751282 53.01888443 -39.88358032 53.82463409 -40.73468018 54.65480042 C-45.45587117 59.1055053 -45.45587117 59.1055053 -47 65 C-43.14806616 64.42603828 -41.21939626 62.69642268 -38.40161133 60.08300781 C-37.52058746 59.26626587 -36.6395636 58.44952393 -35.73184204 57.60803223 C-31.28123474 53.3591309 -26.91250711 49.03517726 -22.57421875 44.671875 C-21.61422052 43.71000369 -20.65399535 42.74835885 -19.69355774 41.78692627 C-17.19615491 39.28575448 -14.70176849 36.7815966 -12.20806885 34.2767334 C-9.67114998 31.72952958 -7.13135495 29.18519707 -4.59179688 26.640625 C-0.08644668 22.12569124 4.41606213 17.60793558 8.91763306 13.0892334 C11.2756866 10.72340434 13.63672669 8.36061363 16 6 C16.33 5.67 16.66 5.34 17 5 C20.85797355 4.63604023 23.15988698 4.43992465 26.4375 6.625 C28 9 28 9 28.6875 11.75 C26.88894875 20.25224228 17.00187774 27.07309154 10.9695282 32.98337555 C8.73792214 35.17239035 6.51607564 37.37120587 4.29349518 39.5693779 C0.17110514 43.64622606 -3.95533125 47.71879022 -8.09765625 51.77539062 C-10.99530813 54.61381461 -13.88073662 57.46416398 -16.75834656 60.32289886 C-17.85433428 61.40712977 -18.95484685 62.48680632 -20.05989075 63.56180573 C-21.59649505 65.05760279 -23.11704961 66.56808372 -24.63476562 68.08300781 C-25.50411743 68.93824036 -26.37346924 69.7934729 -27.26916504 70.67462158 C-29.27805902 72.8291593 -29.27805902 72.8291593 -28.77282715 75.30731201 C-28.51779419 75.86589905 -28.26276123 76.42448608 -28 77 C-24.43310243 75.48496802 -22.16244373 73.39944022 -19.44677734 70.65795898 C-18.10551285 69.31162636 -18.10551285 69.31162636 -16.7371521 67.93809509 C-15.77004874 66.95745936 -14.80297799 65.97679148 -13.8359375 64.99609375 C-12.83804564 63.99192861 -11.83963497 62.98827879 -10.84072876 61.98512268 C-8.21674832 59.34786017 -5.59839906 56.70508329 -2.98162842 54.06066895 C1.21258277 49.8232776 5.413583 45.59264289 9.6178093 41.36519051 C11.08595836 39.88680667 12.55065478 38.40506421 14.01504517 36.92295837 C14.90291718 36.02855545 15.79078918 35.13415253 16.70556641 34.21264648 C17.48848053 33.42147934 18.27139465 32.63031219 19.07803345 31.81517029 C21.50211542 29.52578519 22.53710438 29.05031474 25.875 28.6875 C29 29 29 29 31.375 30.5625 C33.72165562 34.08248343 33.7642966 35.83110943 33 40 C28.19633188 46.97880297 21.28746712 52.73896566 15.22874451 58.63246346 C12.18809612 61.59571032 9.16588543 64.57769984 6.140625 67.55664062 C2.30824023 71.32892605 -1.52951778 75.09517232 -5.38867188 78.84008789 C-8.52638692 81.88588463 -11.64424093 84.95079244 -14.74961853 88.02953911 C-15.93229188 89.19494377 -17.12210564 90.35314863 -18.31910706 91.50383186 C-19.98758547 93.10957468 -21.62951125 94.73856986 -23.26757812 96.37524414 C-24.2079895 97.29487442 -25.14840088 98.2145047 -26.11730957 99.16200256 C-28.36104351 101.95886489 -28.36104351 101.95886489 -27.92077637 105.78904724 C-27.46499207 107.37846886 -27.46499207 107.37846886 -27 109 C-22.43192794 111.28403603 -16.91649168 110.98722107 -12 110 C-7.36593381 108.37985917 -2.92611294 106.34383897 1.48754883 104.20166016 C7.00518899 101.5796518 10.87511557 100.38956919 17 101 C19 102.0625 19 102.0625 20 104 C20.6875 107.3125 20.6875 107.3125 20 111 C13.4307907 119.04988822 -0.27128745 123.23101283 -9.484375 127.60546875 C-11.42716628 128.52847126 -13.36987307 129.45165164 -15.3125 130.375 C-16.7811853 131.0719397 -16.7811853 131.0719397 -18.27954102 131.78295898 C-25.39254996 135.17835107 -32.37264833 138.77757347 -39.32348633 142.49145508 C-62.14213388 154.63080871 -62.14213388 154.63080871 -73.58007812 153.2578125 C-78.45991931 153.0159138 -80.96883662 154.39116263 -84.6171875 157.59375 C-86.4429385 159.37373888 -88.22980523 161.16678193 -90 163 C-90.5389389 163.55131592 -91.07787781 164.10263184 -91.63314819 164.6706543 C-94.68071144 167.78836716 -97.71502034 170.91893208 -100.74804688 174.05078125 C-101.68958618 175.02265381 -101.68958618 175.02265381 -102.65014648 176.01416016 C-103.93308066 177.34639386 -105.20972295 178.68471327 -106.48022461 180.02880859 C-108.34457199 181.99642608 -110.23374266 183.93710632 -112.12890625 185.875 C-112.68542374 186.47594482 -113.24194122 187.07688965 -113.81532288 187.69604492 C-117.59601461 191.50319062 -120.60563853 192.90963188 -126.00743103 193.15072632 C-128.70162617 192.94692604 -129.86228494 192.32549065 -131.71875 190.36328125 C-132.69328125 189.3880249 -132.69328125 189.3880249 -133.6875 188.39306641 C-134.450625 187.60335449 -135.21375 186.81364258 -136 186 C-137.015361 185.04153276 -138.03664007 184.08931147 -139.0625 183.14208984 C-141.98648942 180.43979373 -144.85767176 177.68858849 -147.71191406 174.9128418 C-148.90874594 173.75800688 -150.11528487 172.61315209 -151.33105469 171.47827148 C-162.7621452 160.79195245 -162.7621452 160.79195245 -162.9921875 154.45703125 C-162.438965 150.6434174 -161.43871296 148.21668837 -158.625 145.5 C-157.81804687 144.69175781 -157.01109375 143.88351562 -156.1796875 143.05078125 C-155.45410645 142.35782959 -155.45410645 142.35782959 -154.71386719 141.65087891 C-152.6331252 139.64660863 -150.60265377 137.5962929 -148.5703125 135.54296875 C-144.71292711 131.65179489 -140.83551085 127.78189637 -136.94042969 123.9284668 C-135.34215254 122.34004314 -133.76258484 120.73626275 -132.1875 119.125 C-130 117 -130 117 -128.015625 115.61328125 C-125.1682264 113.51552962 -123.29050913 111.64800911 -122.65673828 108.05273438 C-122.39951577 104.944231 -122.29923726 101.8680417 -122.35058594 98.74926758 C-122.42473194 85.45289395 -112.40023175 77.39919127 -103.65245438 68.53754234 C-100.14404482 65.00342454 -96.62168483 61.48337684 -93.09765625 57.96484375 C-91.56816773 56.4346805 -90.03882758 54.90436893 -88.5096283 53.37391663 C-85.32501497 50.18783784 -82.13862189 47.00355294 -78.95092773 43.82055664 C-74.85961693 39.73498141 -70.77286448 35.64488039 -66.68740177 31.55345821 C-63.54004518 28.40249787 -60.39032301 25.2539109 -57.23986626 22.10605049 C-55.73079415 20.59764616 -54.22246645 19.08849671 -52.71489143 17.57859612 C-50.61840286 15.47957992 -48.5187567 13.38377527 -46.41821289 11.28881836 C-45.79434189 10.66292313 -45.17047089 10.03702789 -44.5276947 9.39216614 C-39.19616149 4.08699356 -39.19616149 4.08699356 -34.5625 3.75 C-31 4 -31 4 -29.0625 5.125 C-27.4222481 8.01956217 -27.5257526 9.69533136 -28 13 C-29.86906109 15.66449554 -32.19006642 17.79270374 -34.5625 20.0078125 C-35.56132202 20.97966995 -35.56132202 20.97966995 -36.58032227 21.97116089 C-38.70644997 24.03728496 -40.85122308 26.08246015 -43 28.125 C-45.14693725 30.17635772 -47.28911982 32.23189261 -49.41967773 34.30026245 C-50.74513833 35.58613163 -52.08037092 36.86201843 -53.42602539 38.1267395 C-54.02664795 38.70769379 -54.62727051 39.28864807 -55.24609375 39.88720703 C-56.04551392 40.64615768 -56.04551392 40.64615768 -56.86108398 41.42044067 C-58.38990465 43.21620078 -58.38990465 43.21620078 -58 47 C-53.97882747 46.45908723 -52.15326207 44.51172565 -49.35498047 41.6796875 C-48.44078339 40.76203613 -47.5265863 39.84438477 -46.58468628 38.89892578 C-45.59543509 37.89103387 -44.60627091 36.88305656 -43.6171875 35.875 C-42.59709417 34.84676892 -41.57626014 33.8192722 -40.55471802 32.79248047 C-37.86931765 30.08997103 -35.19261391 27.37901695 -32.51806641 24.66577148 C-28.23219711 20.32067695 -23.93355328 15.98822813 -19.63437271 11.65631104 C-18.13263542 10.14059175 -16.63476418 8.62113272 -15.13742065 7.10107422 C-13.77558151 5.72459717 -13.77558151 5.72459717 -12.38623047 4.3203125 C-11.58555145 3.50836426 -10.78487244 2.69641602 -9.95993042 1.85986328 C-6.48439114 -1.43822722 -4.57316502 -1.18902291 0 0 Z " fill="#FDFDFD" transform="translate(265,215)"/>
<path d="M0 0 C0.67933594 0.58136719 1.35867188 1.16273437 2.05859375 1.76171875 C-0.43257357 7.24731951 -3.80217255 11.55054631 -8.94140625 14.76171875 C-13.11377214 15.24627923 -16.60408628 15.10145316 -20.78125 14.6875 C-30.53092341 14.28190755 -40.56622075 21.42610288 -49.05859375 25.6875 C-50.405493 26.36027384 -51.75251078 27.03281044 -53.09963989 27.7051239 C-55.90969214 29.10868453 -58.71829573 30.51509124 -61.52587891 31.92358398 C-65.08870817 33.71067967 -68.65506543 35.49059844 -72.22256279 37.26835346 C-75.00218254 38.65451326 -77.77984979 40.04455039 -80.55698013 41.43568993 C-81.8694434 42.0925794 -83.18248128 42.74832231 -84.49615097 43.40279579 C-100.0511349 49.8923074 -100.0511349 49.8923074 -111.94140625 60.76171875 C-112.45149767 66.11767865 -112.41225535 69.42315738 -108.94140625 73.76171875 C-107.12302412 75.78991421 -105.81127092 76.63285848 -103.10546875 77.03369141 C-96.38096566 77.28100504 -91.53300421 75.25416514 -85.56640625 72.32421875 C-83.80896216 71.49140961 -82.05116506 70.65934489 -80.29296875 69.828125 C-79.52807129 69.45631104 -78.76317383 69.08449707 -77.97509766 68.70141602 C-73.819539 66.78127853 -70.49575552 66.5132997 -65.94140625 66.76171875 C-65.28140625 67.42171875 -64.62140625 68.08171875 -63.94140625 68.76171875 C-73.18140625 78.00171875 -82.42140625 87.24171875 -91.94140625 96.76171875 C-93.26140625 95.11171875 -94.58140625 93.46171875 -95.94140625 91.76171875 C-100.36187355 88.91297316 -103.73775821 87.72098914 -108.94140625 88.76171875 C-118.60031109 95.96110721 -126.96408363 105.56584481 -135.4921875 114.0390625 C-136.27112051 114.81267183 -137.05005352 115.58628117 -137.85259056 116.38333321 C-141.9658654 120.47005788 -146.07557878 124.56032967 -150.18286133 128.65307617 C-153.56559732 132.02242973 -156.95547233 135.38434521 -160.35180664 138.73999023 C-164.47883244 142.81760531 -168.5933599 146.90744612 -172.69930077 151.00628853 C-174.25667792 152.55697914 -175.81828581 154.10343352 -177.38430214 155.64539909 C-179.57590683 157.80521772 -181.75103462 159.98046322 -183.9230957 162.15991211 C-184.56266205 162.78307312 -185.20222839 163.40623413 -185.86117554 164.04827881 C-191.2015102 169.46287031 -194.53980014 175.55690043 -196.94140625 182.76171875 C-196.85927858 185.20006081 -196.75182213 187.63759226 -196.62890625 190.07421875 C-196.42798757 196.86737653 -196.42798757 196.86737653 -198.2734375 200.08203125 C-199.94140625 201.69921875 -199.94140625 201.69921875 -202.94140625 203.76171875 C-206.62859894 202.53265452 -207.10567263 201.04906875 -208.796875 197.69799805 C-209.13332031 196.99715088 -209.46976563 196.29630371 -209.81640625 195.57421875 C-210.34041016 194.48717651 -210.34041016 194.48717651 -210.875 193.37817383 C-211.9162946 191.18103262 -212.9320925 188.97370525 -213.94140625 186.76171875 C-214.48023438 185.60414063 -215.0190625 184.4465625 -215.57421875 183.25390625 C-221.2167616 169.6150741 -220.61175916 154.84006724 -215.390625 141.15625 C-210.13582609 128.84783961 -200.5385333 125.60953776 -188.88671875 120.39453125 C-180.9730059 116.71429397 -176.31003819 111.91735398 -172.94140625 103.76171875 C-171.29629451 98.22816108 -171.21888106 92.0647678 -172.94140625 86.57421875 C-174.79250367 79.51690984 -175.43622472 71.07179723 -172.37890625 64.26171875 C-167.44874636 56.54180443 -159.50356038 52.6547855 -151.61328125 48.55078125 C-142.70779051 43.79512803 -136.02519902 38.79916189 -132.94140625 28.76171875 C-132.48687197 24.3547426 -132.64248149 20.05506526 -132.87890625 15.63671875 C-133.36359867 5.88715848 -132.89017797 -0.01495549 -126.96875 -7.84765625 C-121.43684078 -13.51398569 -116.61311568 -16.34897967 -108.94140625 -18.23828125 C-107.8225 -18.53476563 -106.70359375 -18.83125 -105.55078125 -19.13671875 C-72.02473993 -26.53416511 -27.96789745 -21.28234427 0 0 Z " fill="#8EEA60" transform="translate(334.94140625,125.23828125)"/>
<path d="M0 0 C0.73863281 -0.02835937 1.47726562 -0.05671875 2.23828125 -0.0859375 C8.19953346 1.03595686 12.5544779 5.95345289 16.671875 10.12890625 C17.21354309 10.67103256 17.75521118 11.21315887 18.31329346 11.77171326 C19.44838726 12.90980881 20.58106944 14.05031431 21.71142578 15.19311523 C23.4411796 16.94121863 25.17889586 18.68109399 26.91796875 20.41992188 C28.02391195 21.53077785 29.12939701 22.64209017 30.234375 23.75390625 C30.75207458 24.27271866 31.26977417 24.79153107 31.80316162 25.32606506 C35.50191823 29.07388081 37.98862301 31.69162435 38.25 37.0625 C38.34474609 38.27486328 38.34474609 38.27486328 38.44140625 39.51171875 C35.90883096 49.13025599 23.18042489 57.99064466 16.25 64.875 C14.93270941 66.18726585 13.61565014 67.49976395 12.29882812 68.8125 C9.0977139 72.00268506 5.89348135 75.18970651 2.6875 78.375 C-0.80654796 77.21031735 -1.20195501 76.05057698 -3.0859375 73.06640625 C-6.72373934 68.04994702 -11.28607362 64.84486009 -17.3125 63.375 C-16.37784784 67.34727168 -14.85660126 68.81896541 -11.5625 70.9375 C-6.04745472 74.87250494 -3.42099307 80.02643511 -1.3125 86.375 C-0.04923929 94.15862946 -1.20389187 100.68034324 -5.3125 107.375 C-9.74723729 112.94988502 -14.79143396 118.02603066 -19.7890625 123.09204102 C-20.50060486 123.81657974 -21.21214722 124.54111847 -21.94525146 125.28761292 C-29.29718904 132.76505348 -36.68330048 140.20883532 -44.07226562 147.6496582 C-47.57639111 151.18067688 -51.0691466 154.72240168 -54.55273438 158.27368164 C-58.77074738 162.57341207 -63.00786422 166.85339908 -67.25946045 171.11991692 C-68.87390524 172.74662928 -70.48143424 174.38023552 -72.08184814 176.02075386 C-74.31494409 178.30704682 -76.57170634 180.56710748 -78.8359375 182.82250977 C-79.49172791 183.50549133 -80.14751831 184.1884729 -80.82318115 184.89215088 C-85.38904399 189.3667009 -85.38904399 189.3667009 -90.15478516 189.40953064 C-93.3125 188.375 -93.3125 188.375 -95.3125 186.375 C-95.99056199 183.41618403 -96.13565074 182.21619772 -95.3125 179.375 C-92.75917374 175.6379214 -89.52506782 172.54144062 -86.3125 169.375 C-84.22538286 167.30448434 -82.13902936 165.23322198 -80.0546875 163.15991211 C-78.61753733 161.7358006 -77.17364615 160.31845526 -75.72265625 158.90844727 C-75.05234375 158.25030029 -74.38203125 157.59215332 -73.69140625 156.9140625 C-72.78757202 156.03548584 -72.78757202 156.03548584 -71.86547852 155.13916016 C-69.24930753 152.1672294 -68.37554259 149.9423833 -67.9375 146 C-68.39019562 141.62394231 -69.44830338 139.69143819 -72.3125 136.375 C-75.41264929 134.48931306 -75.41264929 134.48931306 -78.3125 133.375 C-77.6525 132.42625 -76.9925 131.4775 -76.3125 130.5 C-73.70255726 125.91395776 -73.44687435 121.53377915 -74.3125 116.375 C-76.1222032 113.15774987 -77.48595547 111.83177461 -80.6875 110.0625 C-83.81578187 109.24318808 -86.087902 108.98015127 -89.3125 109.375 C-92.55011134 111.22750004 -92.55011134 111.22750004 -95.3125 113.375 C-96.3025 113.87 -96.3025 113.87 -97.3125 114.375 C-97.8384375 113.0446875 -97.8384375 113.0446875 -98.375 111.6875 C-100.8209041 107.505793 -103.26665321 105.97044888 -107.3125 103.375 C-106.41948344 102.31013145 -105.5229053 101.24824959 -104.625 100.1875 C-104.08230469 99.54425781 -103.53960937 98.90101563 -102.98046875 98.23828125 C-101.3125 96.375 -101.3125 96.375 -98.4375 93.875 C-95.94426723 91.43424974 -95.94426723 91.43424974 -96 87.5625 C-96.1546875 85.9846875 -96.1546875 85.9846875 -96.3125 84.375 C-101.99728263 81.44091864 -107.37244477 81.47437549 -113.3984375 83.3203125 C-118.80797134 85.3633431 -123.9985662 87.70542669 -129.1875 90.25 C-133.82113899 92.39120052 -136.45366518 93.09583733 -141.3125 91.375 C-143.3125 89.75 -143.3125 89.75 -144.3125 87.375 C-144.25692749 83.97364807 -144.25692749 83.97364807 -143.3125 80.375 C-140.68765259 78.21372986 -140.68765259 78.21372986 -137.20166016 76.42163086 C-136.26201385 75.92586375 -136.26201385 75.92586375 -135.30338478 75.42008114 C-133.31811771 74.38033468 -131.31703509 73.37700026 -129.3125 72.375 C-128.07665657 71.73598791 -126.84182941 71.09500601 -125.60809326 70.45193481 C-121.78642369 68.47234517 -117.93808838 66.54832697 -114.0859375 64.62890625 C-112.68051731 63.92552009 -111.27521577 63.22189679 -109.87002563 62.51805115 C-106.95874616 61.06095389 -104.0460736 59.60669258 -101.13232422 58.15454102 C-97.40187136 56.2950686 -93.67511899 54.428309 -89.94934654 52.55947971 C-87.06319449 51.11279392 -84.17515193 49.66991631 -81.2865181 48.22819328 C-79.91043055 47.54081466 -78.53493201 46.85225552 -77.16004562 46.16247749 C-75.2484174 45.20412378 -73.33430041 44.25093483 -71.41943359 43.29907227 C-70.33358978 42.75694595 -69.24774597 42.21481964 -68.1289978 41.65626526 C-61.21877742 38.51270687 -52.90135855 38.039338 -45.6015625 40.1640625 C-41.78878013 41.82344619 -38.59381677 43.82286474 -35.3125 46.375 C-33.16516073 47.08014846 -33.16516073 47.08014846 -31.3125 47.375 C-32.67407378 42.07999087 -35.91593955 40.13754467 -40.3125 37.375 C-38.9899057 34.44620457 -37.55873696 32.37229203 -35.28735352 30.10693359 C-34.37113976 29.18610489 -34.37113976 29.18610489 -33.43641663 28.24667358 C-32.7780632 27.59550568 -32.11970978 26.94433777 -31.44140625 26.2734375 C-30.76327377 25.59576324 -30.0851413 24.91808899 -29.38645935 24.21987915 C-27.95393389 22.79037075 -26.51898279 21.36328955 -25.08178711 19.93847656 C-22.88142614 17.75637282 -20.68917333 15.56637234 -18.49804688 13.375 C-17.10463769 11.98650632 -15.71077274 10.59846983 -14.31640625 9.2109375 C-13.66007706 8.55572113 -13.00374786 7.90050476 -12.32752991 7.22543335 C-11.40658791 6.31406113 -11.40658791 6.31406113 -10.46704102 5.38427734 C-9.92902359 4.85007172 -9.39100616 4.31586609 -8.83668518 3.76547241 C-5.90750007 1.09325703 -3.89370855 0.06724885 0 0 Z " fill="#FCFDFD" transform="translate(371.3125,105.625)"/>
<path d="M0 0 C3 1 3 1 4.08740234 2.61962891 C4.41691895 3.31491699 4.74643555 4.01020508 5.0859375 4.7265625 C5.45734863 5.50410889 5.82875977 6.28165527 6.21142578 7.08276367 C6.59540527 7.92170166 6.97938477 8.76063965 7.375 9.625 C7.77058105 10.48005127 8.16616211 11.33510254 8.57373047 12.21606445 C18.44888937 33.95476432 18.44888937 33.95476432 16 43 C14.74801628 45.52352968 13.56827891 47.64280868 12 49.9375 C11.39442261 50.84145508 11.39442261 50.84145508 10.77661133 51.76367188 C1.68662721 64.96877601 -8.95553085 71.02679174 -24.33789062 74.61157227 C-33.71164021 76.81549233 -39.44767425 79.98147131 -45 88 C-49.54531265 95.47221853 -51.24701547 102.29420042 -50 111 C-48.35993544 117.33119896 -45.40760017 122.29053042 -41.26953125 127.30859375 C-38.53022068 130.95819829 -38.62763508 134.60609396 -39 139 C-40.95398429 142.60735561 -43.42985167 145.50403511 -46.125 148.5625 C-50.03175642 153.08092031 -51.50397296 156.76881845 -51.30859375 162.89453125 C-50.33021954 169.56976798 -46.08304394 174.38822431 -41.5859375 179.140625 C-38.51014445 182.7467272 -37.27490389 186.1623953 -37.453125 190.9921875 C-38.60629298 195.22596137 -42.41827724 196.89123424 -46 199 C-46.99515625 199.61617187 -47.9903125 200.23234375 -49.015625 200.8671875 C-81.26638035 220.14263895 -118.7901631 228.08263855 -156 221 C-156.30852905 220.01773438 -156.30852905 220.01773438 -156.62329102 219.015625 C-157.58242355 216.0034117 -158.57214047 213.00208434 -159.5625 210 C-159.88541016 208.97003906 -160.20832031 207.94007813 -160.54101562 206.87890625 C-162.86225554 199.93729354 -165.72535117 195.0939268 -171 190 C-166.73201484 186.67602402 -162.16019263 184.24478378 -157.375 181.75 C-156.09689453 181.04230469 -156.09689453 181.04230469 -154.79296875 180.3203125 C-147.16778302 176.37505755 -141.91443802 176.90133958 -133.75 178.7265625 C-126.51721416 181.08954651 -121.06677914 184.47451069 -115 189 C-110.01494373 192.15381111 -105.78032901 192.88025315 -100 192 C-94.67554089 190.25335204 -91.06496669 187.76772595 -88 183 C-87.4121875 181.6078125 -87.4121875 181.6078125 -86.8125 180.1875 C-84.51003283 176.1383336 -81.51062434 173.6981912 -77.9609375 170.734375 C-75.04679476 168.15692604 -74.73661698 166.21745628 -74.5 162.4375 C-74.53982345 156.88611047 -76.57358712 154.3551847 -80.12109375 150.27734375 C-87.70134666 141.08963597 -90.3125218 129.70538342 -90.3984375 118.078125 C-89.49146475 111.0713159 -85.32889879 106.91458399 -80.49658203 102.20361328 C-79.84093262 101.55234467 -79.1852832 100.90107605 -78.50976562 100.23007202 C-77.09060661 98.82229447 -75.66799336 97.41799228 -74.24231339 96.016819 C-71.9820001 93.79493901 -69.73131667 91.56369694 -67.48287964 89.32980347 C-61.89609326 83.78304686 -56.29318185 78.25267004 -50.69067383 72.72180176 C-45.95555116 68.04601706 -41.22671261 63.36404417 -36.50594711 58.67376328 C-34.29579106 56.48295853 -32.0767467 54.30144035 -29.85720825 52.12014771 C-28.49176125 50.76560711 -27.12673861 49.41063855 -25.76220703 48.05517578 C-24.84246597 47.15868317 -24.84246597 47.15868317 -23.90414429 46.24407959 C-17.9024348 40.2445787 -12.0354451 32.95218712 -11.97265625 24.1796875 C-11.99062256 23.48415771 -12.00858887 22.78862793 -12.02709961 22.07202148 C-12.13423101 15.42322495 -11.73047459 10.8264307 -6.99975586 5.88134766 C-4.74392222 3.79649062 -2.44318227 1.86358054 0 0 Z " fill="#65D7FD" transform="translate(386,179)"/>
<path d="M0 0 C0.99 0.495 0.99 0.495 2 1 C8.35456575 39.57547285 -1.46801868 79.94977037 -24.13427734 111.58300781 C-29.57405292 119.04339574 -35.55502235 125.8269676 -42.0625 132.375 C-42.71798828 133.0359668 -43.37347656 133.69693359 -44.04882812 134.37792969 C-48.74231029 139 -48.74231029 139 -51 139 C-51.1959375 138.31035156 -51.391875 137.62070312 -51.59375 136.91015625 C-53.71594647 130.24170269 -56.36668045 125.8469867 -61.29296875 120.875 C-64.42604702 117.43363256 -64.33866719 113.70564418 -64.28125 109.27734375 C-63.56435395 103.47247715 -58.91786409 99.91786409 -55 96 C-51.93357961 91.07871693 -52.17870663 85.58760274 -53 80 C-54.59607302 76.63666632 -56.67066773 73.88789664 -59 71 C-63.52184632 63.98334192 -63.82638016 57.26380162 -63 49 C-60.71631353 41.66992343 -55.12811255 36.3757242 -49 32 C-45.57349615 30.34783176 -42.08248135 29.49385947 -38.37915039 28.65722656 C-21.76456399 24.88091655 -11.26912838 17.45573207 -2 3 C-1.34 2.01 -0.68 1.02 0 0 Z " fill="#8DE95F" transform="translate(404,228)"/>
<path d="M0 0 C-1.01997472 2.66762618 -2.00806964 5.01232418 -3.578125 7.41015625 C-6.02440038 13.58632952 -5.07769321 20.06501076 -4.79492188 26.61523438 C-4.59825766 34.59212679 -5.23971855 40.79370172 -10.71044922 46.91333008 C-16.15129584 51.97179887 -22.51621634 55.3338402 -29.02148438 58.81640625 C-37.22785901 63.3600487 -43.16667862 68.38987645 -46.34765625 77.38671875 C-47.95827892 83.83885387 -47.22938547 89.33498065 -45.46484375 95.671875 C-44.11050778 102.45493582 -43.47021976 110.35531011 -47.0625 116.5 C-52.35076657 123.13619973 -58.117214 126.83761116 -65.9375 129.9375 C-75.88671833 134.15618584 -82.36767297 138.23620813 -86.96875 148.35546875 C-88.58405669 152.49775143 -89.87482792 156.70056197 -91 161 C-91.33 161 -91.66 161 -92 161 C-97.97833606 131.2684537 -92.37414091 99.96399377 -79 73 C-78.45601562 71.88496094 -77.91203125 70.76992187 -77.3515625 69.62109375 C-65.12692835 45.77444826 -30.4038792 0 0 0 Z " fill="#66D8FD" transform="translate(203,115)"/>
<path d="M0 0 C2 1.0625 2 1.0625 3 3 C3.6875 6.3125 3.6875 6.3125 3 10 C-3.5692093 18.04988822 -17.27128745 22.23101283 -26.484375 26.60546875 C-28.42716628 27.52847126 -30.36987307 28.45165164 -32.3125 29.375 C-33.29162354 29.83962646 -34.27074707 30.30425293 -35.27954102 30.78295898 C-42.39254996 34.17835107 -49.37264833 37.77757347 -56.32348633 41.49145508 C-79.14213388 53.63080871 -79.14213388 53.63080871 -90.58007812 52.2578125 C-95.45899091 52.01595982 -97.9613631 53.38795951 -101.60546875 56.59375 C-103.43176206 58.37529412 -105.22258416 60.17136149 -107 62 C-108.13741328 63.14846917 -109.27555628 64.29621596 -110.41430664 65.44335938 C-114.86789197 69.94935473 -119.30860599 74.46843221 -123.70654297 79.02880859 C-125.60025439 80.9890494 -127.50945218 82.93303318 -129.421875 84.875 C-129.99387634 85.47594482 -130.56587769 86.07688965 -131.1552124 86.69604492 C-134.61141922 90.17499579 -136.88110789 91.76828855 -142 92 C-143.1888322 80.11167801 -137.22262054 68.14865269 -130 59 C-122.08803378 50.29400133 -111.84049485 43.14847337 -100.27047729 40.54545593 C-86.5012212 37.41399399 -74.3404993 30.60974383 -61.875 24.1875 C-59.54893969 23.00435888 -57.22212123 21.82270708 -54.89453125 20.64257812 C-49.25417698 17.77880653 -43.62341405 14.89688247 -38 12 C-38.495 11.01 -38.495 11.01 -39 10 C-37.90558594 9.92265625 -37.90558594 9.92265625 -36.7890625 9.84375 C-28.4509295 8.93787876 -21.90074152 6.50489923 -14.44580078 2.74414062 C-9.32889472 0.25032099 -5.70239463 -0.4912641 0 0 Z " fill="#E4E4E4" transform="translate(282,316)"/>
<path d="M0 0 C6.84225977 3.58404083 10.58331755 9.74995264 13 17 C13.79975102 25.7317078 13.05927609 32.89710529 7.49356079 39.89373684 C3.29003493 44.62552383 -1.03183433 49.21149629 -5.4765625 53.71704102 C-6.18810486 54.44157974 -6.89964722 55.16611847 -7.63275146 55.91261292 C-14.98468904 63.39005348 -22.37080048 70.83383532 -29.75976562 78.2746582 C-33.26389111 81.80567688 -36.7566466 85.34740168 -40.24023438 88.89868164 C-44.45824738 93.19841207 -48.69536422 97.47839908 -52.94696045 101.74491692 C-54.56140524 103.37162928 -56.16893424 105.00523552 -57.76934814 106.64575386 C-60.00244409 108.93204682 -62.25920634 111.19210748 -64.5234375 113.44750977 C-65.50712311 114.47198212 -65.50712311 114.47198212 -66.51068115 115.51715088 C-71.07654399 119.9917009 -71.07654399 119.9917009 -75.84228516 120.03453064 C-79 119 -79 119 -81 117 C-81.67806199 114.04118403 -81.82315074 112.84119772 -81 110 C-78.44667374 106.2629214 -75.21256782 103.16644062 -72 100 C-69.91288286 97.92948434 -67.82652936 95.85822198 -65.7421875 93.78491211 C-64.30503733 92.3608006 -62.86114615 90.94345526 -61.41015625 89.53344727 C-60.73984375 88.87530029 -60.06953125 88.21715332 -59.37890625 87.5390625 C-58.7763501 86.95334473 -58.17379395 86.36762695 -57.55297852 85.76416016 C-55.02511944 82.8925504 -54.09535302 80.40817952 -53.22276306 76.67286682 C-51.88610715 72.65789508 -50.5283884 70.93913472 -47.52197266 68.01782227 C-46.59405914 67.10319717 -45.66614563 66.18857208 -44.71011353 65.24623108 C-44.21395161 64.76904192 -43.71778969 64.29185276 -43.20659256 63.80020332 C-41.63932902 62.29261451 -40.08821498 60.76992222 -38.54013062 59.24266052 C-35.24895905 56.0016068 -31.93776322 52.78145704 -28.625 49.5625 C-24.79046887 45.83234303 -20.96464666 42.09375254 -17.15418625 38.33900261 C-15.6337731 36.84799391 -14.10136001 35.37015951 -12.56777954 33.89271545 C-5.59678212 27.04439527 -0.18966333 20.70649549 0.09765625 10.546875 C0.08605469 9.29390625 0.07445312 8.0409375 0.0625 6.75 C0.05347656 5.48671875 0.04445313 4.2234375 0.03515625 2.921875 C0.02355469 1.95765625 0.01195312 0.9934375 0 0 Z " fill="#E4E4E4" transform="translate(357,175)"/>
<path d="M0 0 C0.66 0.33 1.32 0.66 2 1 C8.35456575 39.57547285 -1.46801868 79.94977037 -24.13427734 111.58300781 C-29.57405292 119.04339574 -35.55502235 125.8269676 -42.0625 132.375 C-42.71798828 133.0359668 -43.37347656 133.69693359 -44.04882812 134.37792969 C-48.74231029 139 -48.74231029 139 -51 139 C-51.24234375 138.27554688 -51.4846875 137.55109375 -51.734375 136.8046875 C-53.63197065 131.33085389 -55.49800176 126.62764053 -59 122 C-58.45472656 121.55011719 -57.90945313 121.10023438 -57.34765625 120.63671875 C-51.1019884 115.30921745 -45.96301291 109.52800478 -41 103 C-40.28070313 102.05769531 -39.56140625 101.11539063 -38.8203125 100.14453125 C-27.95324416 85.19747818 -20.05434724 68.73934393 -15 51 C-14.61569824 49.76697144 -14.61569824 49.76697144 -14.22363281 48.5090332 C-11.70683876 40.0811452 -11.0726026 31.69005689 -10.53515625 22.93945312 C-9.79543899 14.47113154 -7.3920601 9.50288773 -2 3 C-1.34 2.01 -0.68 1.02 0 0 Z " fill="#6ED43A" transform="translate(404,228)"/>
<path d="M0 0 C0.3403125 1.423125 0.3403125 1.423125 0.6875 2.875 C1.68907293 6.08204559 1.68907293 6.08204559 4.125 7.375 C10.00186866 8.65258014 14.4617396 8.42298892 20 6 C20.00386719 7.25490234 20.00386719 7.25490234 20.0078125 8.53515625 C20.489455 23.0325956 25.5571682 36.5571682 36 47 C36.5625 49.6875 36.5625 49.6875 36 53 C33.92767707 55.62872744 31.51165798 57.79688621 29 60 C26.4628386 62.32573128 25.09371377 63.79979331 23.625 66.9375 C21.67087451 70.62027496 19.74347925 73.16270957 16 75 C12.08723263 76.02798486 8.92676595 75.97162286 5 75 C2.21261748 73.34367848 -0.35411083 71.5495995 -2.92285156 69.57397461 C-8.78200996 65.1499436 -14.99821305 63.08898891 -22 61 C-18.78702283 58.40015663 -15.4418681 56.62647105 -11.73046875 54.8203125 C-10.49929953 54.21494427 -9.26818136 53.6094722 -8.03710938 53.00390625 C-6.11617995 52.0650896 -4.19429553 51.1283021 -2.27124023 50.19384766 C9.42308753 45.4126823 9.42308753 45.4126823 18 37 C18.65618016 29.13604653 18.65618016 29.13604653 16 22 C11.03486321 19.33578026 6.33709399 19.88547561 1 21 C-3.53006307 22.64792578 -7.84068122 24.76665497 -12.18359375 26.84960938 C-18.14343205 29.57573218 -22.44208796 30.47318268 -29 30 C-29 26.17283102 -27.52887096 25.16793462 -24.9347229 22.54353333 C-24.35040497 21.96842514 -23.76608704 21.39331696 -23.1640625 20.80078125 C-22.56951263 20.20573288 -21.97496277 19.61068451 -21.36239624 18.99760437 C-20.1032594 17.74080931 -18.84042502 16.4877095 -17.57421875 15.23803711 C-15.63103431 13.31846099 -13.70152297 11.38590083 -11.7734375 9.45117188 C-10.55026985 8.23358018 -9.32633695 7.01675665 -8.1015625 5.80078125 C-7.52129303 5.21960037 -6.94102356 4.63841949 -6.34317017 4.03962708 C-2.23101073 0 -2.23101073 0 0 0 Z " fill="#8BE65F" transform="translate(271,291)"/>
<path d="M0 0 C4.67414991 3.28453777 7.13444034 6.33237431 8.4609375 11.953125 C8.71243577 14.22528182 8.65880522 15.80693028 8 18 C5.77094639 20.67754188 2.9802529 22.24535406 0 24 C-0.99515625 24.61617188 -1.9903125 25.23234375 -3.015625 25.8671875 C-35.35956602 45.19833365 -72.6988787 52.9397435 -110 46 C-111.485 40.555 -111.485 40.555 -113 35 C-111.46013428 34.98598145 -111.46013428 34.98598145 -109.88916016 34.97167969 C-105.98592721 34.93102761 -102.0834222 34.86508644 -98.18066406 34.79248047 C-96.50921156 34.76469744 -94.83763808 34.74327709 -93.16601562 34.72900391 C-80.96832873 34.61878384 -69.78739378 33.14315044 -58 30 C-57.03771484 29.74895508 -56.07542969 29.49791016 -55.08398438 29.23925781 C-36.80908082 24.20585272 -21.27403694 16.10354188 -5.83666992 5.20166016 C-3.95174951 3.96843162 -2.03218595 2.96765411 0 2 C0 1.34 0 0.68 0 0 Z " fill="#4CBCFD" transform="translate(340,354)"/>
<path d="M0 0 C-0.64108137 1.67667436 -1.31471955 3.34089996 -2 5 C-2.4640625 6.4540625 -2.4640625 6.4540625 -2.9375 7.9375 C-5.62002486 11.92064297 -8.55950098 13.11360839 -12.78125 15.2578125 C-46.50856465 33.51313086 -70.8514851 66.7991474 -82 103 C-85.70214694 116.09678423 -87.17889543 128.75733811 -87.4296875 142.3359375 C-87.64188648 148.9848389 -88.76540224 154.73314885 -91 161 C-91.33 161 -91.66 161 -92 161 C-97.97833606 131.2684537 -92.37414091 99.96399377 -79 73 C-78.45601562 71.88496094 -77.91203125 70.76992187 -77.3515625 69.62109375 C-65.12692835 45.77444826 -30.4038792 0 0 0 Z " fill="#F6F9FA" transform="translate(203,115)"/>
<path d="M0 0 C2.38867276 1.94122685 4.70838803 3.9451248 7 6 C7.78117187 6.68449219 7.78117187 6.68449219 8.578125 7.3828125 C11.4865963 10.30799915 12.43883976 12.88482754 12.75 16.875 C12.45556167 20.61961419 11.90716046 22.65506345 9.35546875 25.4140625 C8.40631592 26.44104248 8.40631592 26.44104248 7.43798828 27.48876953 C1.87343404 33.22049444 -3.77004281 38.87021686 -9.4375 44.5 C-10.75479059 45.81226585 -12.07184986 47.12476395 -13.38867188 48.4375 C-16.5897861 51.62768506 -19.79401865 54.81470651 -23 58 C-26.48715285 56.83761572 -26.89253076 55.69583905 -28.75 52.69921875 C-31.01055093 49.62628233 -34.02593422 47.3558611 -37 45 C-33.69967549 41.69269396 -30.38575912 38.3996788 -27.06330872 35.11460876 C-24.48606213 32.56421096 -21.91419441 30.00841686 -19.3425293 27.45239258 C-17.98557446 26.10555574 -16.6268388 24.76051081 -15.26635742 23.41723633 C-13.29393635 21.46905757 -11.32803153 19.5145045 -9.36328125 17.55859375 C-8.75494949 16.96058456 -8.14661774 16.36257538 -7.51985168 15.7464447 C-6.9555394 15.18228348 -6.39122711 14.61812225 -5.80981445 14.03686523 C-5.066325 13.30003761 -5.066325 13.30003761 -4.30781555 12.54832458 C-1.07523701 8.72127051 -0.56571945 4.9029019 0 0 Z " fill="#E4E5E5" transform="translate(397,126)"/>
<path d="M0 0 C3.49644963 -0.31785906 5.397402 -0.39644605 8.375 1.5625 C10.72165562 5.08248343 10.7642966 6.83110943 10 11 C4.6604981 18.71668225 -3.04493511 25.19069766 -9.6796875 31.8125 C-10.90054672 33.03403387 -12.12125754 34.25571606 -13.34182739 35.47753906 C-15.88349195 38.0206691 -18.42693462 40.56200332 -20.97167969 43.10205078 C-24.24033365 46.36496541 -27.50442027 49.63240666 -30.76722527 52.90116882 C-33.27889085 55.41643499 -35.79291707 57.92933073 -38.30768204 60.4414978 C-39.51335255 61.64649984 -40.71827684 62.85224899 -41.92245102 64.05874634 C-43.59547814 65.73429626 -45.27164751 67.40663602 -46.94873047 69.078125 C-47.4484285 69.57984726 -47.94812653 70.08156952 -48.46296692 70.59849548 C-51.8857287 74 -51.8857287 74 -53 74 C-52.99382154 72.52025949 -52.94249832 71.04071315 -52.875 69.5625 C-52.85179687 68.73878906 -52.82859375 67.91507812 -52.8046875 67.06640625 C-50.38483107 57.8451087 -42.44745299 51.06986539 -35.859375 44.63671875 C-34.88544217 43.67349049 -33.91233281 42.70942897 -32.94000244 41.74458313 C-30.40226092 39.2294194 -27.85646057 36.72260109 -25.30786133 34.21844482 C-21.21435047 30.19566105 -17.12879961 26.16492023 -13.05213165 22.12507057 C-11.6329202 20.72248807 -10.20710469 19.32659806 -8.78118896 17.93083191 C-7.91979309 17.07927017 -7.05839722 16.22770844 -6.17089844 15.3503418 C-5.41178162 14.60471481 -4.65266479 13.85908783 -3.87054443 13.09086609 C-0.02661799 8.79418363 0.22042684 5.73109777 0 0 Z " fill="#E1E2E3" transform="translate(288,244)"/>
<path d="M0 0 C8.19287644 4.79583011 10.52286411 15.43543443 13 24 C13 24.66 13 25.32 13 26 C6.05241882 24.83086947 -0.2915512 23.03063649 -6.8125 20.375 C-7.67327148 20.02888672 -8.53404297 19.68277344 -9.42089844 19.32617188 C-16.79671061 16.26784109 -23.41933385 12.51520159 -30 8 C-28.44657573 4.97043626 -26.84192993 2.90739985 -24 1 C-20.01124723 0.52360173 -16.4717068 0.6194022 -12.4609375 0.8515625 C-8.10521294 1.03837687 -4.31909694 -0.52671914 0 0 Z " fill="#8BE75E" transform="translate(211,372)"/>
<path d="M0 0 C0.495 0.99 0.495 0.99 1 2 C-3.2886599 0.61188303 -7.50546973 -0.92421944 -11.72241211 -2.51269531 C-38.8628808 -12.69473903 -67.44410649 -16.84768634 -96 -10 C-96.79841309 -9.81244141 -97.59682617 -9.62488281 -98.41943359 -9.43164062 C-107.31208652 -7.31017392 -115.76332595 -5.04345817 -124 -1 C-124.66 -1 -125.32 -1 -126 -1 C-123.08778216 -7.35392984 -118.64654796 -11.66917432 -112.125 -14.25 C-110.09742166 -14.88056056 -108.05364664 -15.46035563 -106 -16 C-104.31777344 -16.44859375 -104.31777344 -16.44859375 -102.6015625 -16.90625 C-68.21235428 -24.43978851 -30.23274675 -17.74796874 0 0 Z " fill="#F4F8F5" transform="translate(332,123)"/>
<path d="M0 0 C3 1 3 1 4.08740234 2.61962891 C4.41691895 3.31491699 4.74643555 4.01020508 5.0859375 4.7265625 C5.6430542 5.89288208 5.6430542 5.89288208 6.21142578 7.08276367 C6.78739502 8.34117065 6.78739502 8.34117065 7.375 9.625 C7.77058105 10.48005127 8.16616211 11.33510254 8.57373047 12.21606445 C18.72039762 34.55244951 18.72039762 34.55244951 16 43 C14.20995888 46.48427722 12.29307921 49.82095837 10 53 C9.67 53 9.34 53 9 53 C8.91024902 52.28682617 8.82049805 51.57365234 8.72802734 50.83886719 C6.82514253 36.0755143 4.42616705 21.96762307 -0.39916992 7.86157227 C-0.59744385 7.24725342 -0.79571777 6.63293457 -1 6 C-1.34865112 4.95380493 -1.34865112 4.95380493 -1.7043457 3.88647461 C-1.80191162 3.26393799 -1.89947754 2.64140137 -2 2 C-1.34 1.34 -0.68 0.68 0 0 Z " fill="#4BBAFA" transform="translate(386,179)"/>
<path d="M0 0 C1.33376989 0.39435985 2.66696613 0.79065933 4 1.1875 C5.36511719 1.59355469 5.36511719 1.59355469 6.7578125 2.0078125 C9.11683133 2.72972911 11.46132376 3.47277722 13.8046875 4.2421875 C21.84905683 6.86323322 29.58241945 8.84258267 38 10 C38.99 13.63 39.98 17.26 41 21 C34.0294878 19.77100497 27.73674631 18.04216057 21.1875 15.375 C19.89634277 14.85583008 19.89634277 14.85583008 18.57910156 14.32617188 C11.20328939 11.26784109 4.58066615 7.51520159 -2 3 C-1.34 2.01 -0.68 1.02 0 0 Z " fill="#6ACF3A" transform="translate(183,377)"/>
<path d="M0 0 C1.32 0.33 2.64 0.66 4 1 C3.67628931 6.34122639 0.79977131 9.52898154 -3 13 C-11.44653048 18.99607836 -18.65707036 21.35049124 -28.9375 21.3125 C-30.23977539 21.33666992 -30.23977539 21.33666992 -31.56835938 21.36132812 C-37.15300561 21.36554932 -41.02868071 20.56344219 -46 18 C-46 16.68 -46 15.36 -46 14 C-39.25 13.875 -39.25 13.875 -37 15 C-25.59670571 15.87939438 -15.53694594 15.12646073 -6.5 7.5 C-4.01893881 5.18714635 -1.97990517 2.75255109 0 0 Z " fill="#0A414E" transform="translate(332,178)"/>
<path d="M0 0 C1.4049897 2.65991027 2.44559509 5.20455315 3.26171875 8.09765625 C3.49044678 8.89059082 3.7191748 9.68352539 3.95483398 10.50048828 C4.19661377 11.34595215 4.43839355 12.19141602 4.6875 13.0625 C7.05965581 21.22247524 9.79523328 29.17318849 12.90307617 37.08227539 C13.6554289 39.03511499 14.33502733 41.01570454 15 43 C14.67 43.66 14.34 44.32 14 45 C8.75625383 37.09719106 5.2648676 28.85054469 2 20 C1.61585937 19.01257813 1.23171875 18.02515625 0.8359375 17.0078125 C-0.15698275 13.43515553 -0.19484546 10.32680945 -0.125 6.625 C-0.10695313 5.37976563 -0.08890625 4.13453125 -0.0703125 2.8515625 C-0.04710938 1.91054688 -0.02390625 0.96953125 0 0 Z " fill="#F0F8EF" transform="translate(116,284)"/>
<path d="M0 0 C4.74051235 1.65188032 8.75645911 4.03578789 12.875 6.875 C11.885 7.37 11.885 7.37 10.875 7.875 C8.49804468 7.01199144 6.2397591 6.09374447 3.9375 5.0625 C3.30392578 4.78857422 2.67035156 4.51464844 2.01757812 4.23242188 C-0.88892595 2.9579611 -3.47714949 1.64023367 -6.125 -0.125 C-3.51573338 -1.42963331 -2.7269726 -0.90265644 0 0 Z " fill="#DEEEDD" transform="translate(320.125,117.125)"/>
<path d="M0 0 C1.64350079 3.28700157 2.41321669 5.47930015 3 9 C2.34 9 1.68 9 1 9 C1 10.65 1 12.3 1 14 C0.67 14 0.34 14 0 14 C0 9.38 0 4.76 0 0 Z " fill="#D9E8DB" transform="translate(116,284)"/>
</svg>
